# xmcd CD database file
#
# Track frame offsets:
#	150
#	19200
#	39735
#	56445
#	71667
#	90337
#	105575
#	126715
#	148110
#	166442
#
# Disc length: 2610 seconds
#
# Revision: 0
# Processed by: cddbd v1.5.1PL0 Copyright (c) Steve Scherf et al.
# Submitted via: CDex 1.51
#
DISCID=8e0a300a
DTITLE=怒髪天 - TYPE-D
DYEAR=1900
DGENRE=Rock
TTITLE0=北風に吠えろ！
TTITLE1=ゆきてかへらず
TTITLE2=俺VS俺
TTITLE3=雑草挽歌
TTITLE4=煙草と夕立の間
TTITLE5=××××・ジ・エンド
TTITLE6=無職透明
TTITLE7=小さな約束
TTITLE8=生きてていいですか？
TTITLE9=夢と現
EXTD=
EXTT0=
EXTT1=
EXTT2=
EXTT3=
EXTT4=
EXTT5=
EXTT6=
EXTT7=
EXTT8=
EXTT9=
PLAYORDER=
